# xmcd
#
# Track frame offsets: 
#        150
#        14372
#        26457
#        35835
#        47836
#        55185
#        94873
#        109230
#        121613
#        142558
#        155245
#        168407
#        183262
#        194694
#        208767
#        224215
#        239154
#        250404
#
# Disc length: 3528 seconds
#
# Revision: 0
# Processed by: cddbd v1.5.1PL2 Copyright (c) Steve Scherf et al.
# Submitted via: ExactAudioCopy v0.95b4
#
DISCID=0f0dc612
DTITLE=Giacinto Scelsi - Music For High Winds
DYEAR=2001
DGENRE=Club-House
TTITLE0=Ixor
TTITLE1=Suite I
TTITLE2=Suite II
TTITLE3=Suite III
TTITLE4=Suite IV
TTITLE5=Preghiera per un' ombra
TTITLE6=Ko-Lho I
TTITLE7=Ko-Lho II
TTITLE8=Pwyll
TTITLE9=Tre pezzi I
TTITLE10=Tre pezzi II
TTITLE11=Tre pezzi III
TTITLE12=Rucke di Guck I
TTITLE13=Rucke di Guck II
TTITLE14=Rucke di Guck III
TTITLE15=Three Latin Prayers: Ave Maria
TTITLE16=Three Latin Prayers: Pater Noster
TTITLE17=Three Latin Prayers: Alleluja
EXTD=
EXTT0=
EXTT1=
EXTT2=
EXTT3=
EXTT4=
EXTT5=
EXTT6=
EXTT7=
EXTT8=
EXTT9=
EXTT10=
EXTT11=
EXTT12=
EXTT13=
EXTT14=
EXTT15=
EXTT16=
EXTT17=
PLAYORDER=
